<?xml version="1.0" encoding="UTF-8" standalone="no"?>
<!-- Created with Inkscape (http://www.inkscape.org/) -->

<svg
   width="108"
   height="108"
   viewBox="0 0 108 108"
   version="1.1"
   id="svg1"
   inkscape:version="1.3.2 (091e20e, 2023-11-25, custom)"
   sodipodi:docname="diatronome_round.svg"
   inkscape:export-filename="icon.png"
   inkscape:export-xdpi="60"
   inkscape:export-ydpi="60"
   xmlns:inkscape="http://www.inkscape.org/namespaces/inkscape"
   xmlns:sodipodi="http://sodipodi.sourceforge.net/DTD/sodipodi-0.dtd"
   xmlns="http://www.w3.org/2000/svg"
   xmlns:svg="http://www.w3.org/2000/svg">
  <sodipodi:namedview
     id="namedview1"
     pagecolor="#ffffff"
     bordercolor="#666666"
     borderopacity="1.0"
     inkscape:showpageshadow="2"
     inkscape:pageopacity="0.0"
     inkscape:pagecheckerboard="0"
     inkscape:deskcolor="#d1d1d1"
     inkscape:document-units="px"
     showgrid="true"
     showguides="true"
     inkscape:zoom="4.4179688"
     inkscape:cx="69.375773"
     inkscape:cy="51.720601"
     inkscape:window-width="1366"
     inkscape:window-height="697"
     inkscape:window-x="1912"
     inkscape:window-y="-8"
     inkscape:window-maximized="1"
     inkscape:current-layer="layer1">
    <inkscape:grid
       id="grid1"
       units="px"
       originx="8.4666662"
       originy="8.4666662"
       spacingx="2.1166666"
       spacingy="2.1166666"
       empcolor="#3f3fff"
       empopacity="0.25098039"
       color="#3f3fff"
       opacity="0.1254902"
       empspacing="5"
       dotted="false"
       gridanglex="30"
       gridanglez="30"
       visible="true" />
    <sodipodi:guide
       position="89.949483,103.03837"
       orientation="1,0"
       id="guide1"
       inkscape:locked="false" />
    <sodipodi:guide
       position="17.765823,101.43785"
       orientation="1,0"
       id="guide2"
       inkscape:locked="false" />
    <sodipodi:guide
       position="23.367659,90.074124"
       orientation="0,-1"
       id="guide3"
       inkscape:locked="false" />
    <sodipodi:guide
       position="20.006558,18.050517"
       orientation="0,-1"
       id="guide4"
       inkscape:locked="false" />
  </sodipodi:namedview>
  <defs
     id="defs1">
    <inkscape:path-effect
       effect="mirror_symmetry"
       start_point="31.522219,8.4666662"
       end_point="31.522219,45.50833"
       center_point="31.522219,26.987498"
       id="path-effect4"
       is_visible="true"
       lpeversion="1.2"
       lpesatellites=""
       mode="free"
       discard_orig_path="false"
       fuse_paths="false"
       oposite_fuse="false"
       split_items="false"
       split_open="false"
       link_styles="false" />
  </defs>
  <g
     inkscape:label="Calque 1"
     inkscape:groupmode="layer"
     id="layer1">
    <path
       style="fill:none;stroke:#000000;stroke-width:0.276939px;stroke-linecap:butt;stroke-linejoin:miter;stroke-opacity:1"
       d="m 38.615859,31.118005 c 7.382995,7.410573 9.28583,9.513799 17.292339,17.375987 4.640054,4.556406 -4.72742,13.988133 -9.427214,9.288338 L 29.248386,40.549733 M 41.749057,27.984806 C 57.573446,43.741605 54.449171,40.41454 62.14698,48.382727 66.764976,53.162927 51.18078,68.74852 46.480984,64.048723 L 26.083061,43.650801 m 3.133201,-6.266398 c 0.588693,0.588693 0.232026,2.343276 0.01606,3.149264 -0.215072,0.802657 -2.343471,2.901223 -3.149263,3.117134 -0.619244,-0.619243 -0.221665,-2.337239 0,-3.133198 0.221666,-0.795961 2.404702,-2.712602 3.133199,-3.133201 l 18.799195,18.799196 c 4.048817,4.048815 6.641512,0.408187 6.641512,0.408187"
       id="path7"
       sodipodi:nodetypes="cssccsscccczcsc" />
    <path
       style="fill:none;stroke:#000000;stroke-width:0.276939px;stroke-linecap:butt;stroke-linejoin:miter;stroke-opacity:1"
       d="m 57.84646,59.73234 c 0.572274,-0.572274 9.537798,-9.367923 5.925253,-12.919272 L 41.749056,24.851607 c -0.798049,0.213836 -2.91845,2.331751 -3.133197,3.133198 -0.217055,0.810062 -0.593397,2.539802 0,3.1332 0.827855,-0.223365 2.91758,-2.328499 3.133198,-3.133199 v 0 c 0.215161,-0.802993 0.587308,-2.545894 0,-3.133199"
       id="path9"
       sodipodi:nodetypes="cccscscc" />
    <path
       style="fill:none;stroke:#000000;stroke-width:0.276939px;stroke-linecap:butt;stroke-linejoin:miter;stroke-opacity:1"
       d="M 56.294564,61.133682 68.827361,73.66648 C 69.62333,73.4532 71.744126,71.341009 71.960557,70.533276 67.586319,66.15904 63.563946,62.136666 59.427764,58.000483"
       id="path3"
       sodipodi:nodetypes="cccc" />
    <path
       style="fill:none;stroke:#000000;stroke-width:0.276939px;stroke-linecap:butt;stroke-linejoin:miter;stroke-opacity:1"
       d="m 60.942269,56.381789 11.01829,11.018291 c 0.21767,0.812353 0.217772,2.320466 10e-7,3.133198"
       id="path13"
       sodipodi:nodetypes="ccc" />
    <path
       style="fill:none;stroke:#000000;stroke-width:0.276939px;stroke-linecap:butt;stroke-linejoin:miter;stroke-opacity:1"
       d="m 70.506,65.945521 c 6.027921,-1.743643 9.872063,4.873457 4.830413,9.915106 -5.041649,5.041647 -11.002665,0.47767 -9.680064,-5.169336"
       id="path18"
       sodipodi:nodetypes="czc" />
    <path
       style="display:inline;fill:#0044aa;fill-opacity:1;stroke:#000000;stroke-width:0.277372;stroke-linecap:round;stroke-linejoin:round;stroke-miterlimit:4;stroke-dasharray:none;stroke-dashoffset:0;stroke-opacity:1;paint-order:normal"
       id="path21"
       sodipodi:type="arc"
       sodipodi:cx="51.936092"
       sodipodi:cy="52.297504"
       sodipodi:rx="2.005904"
       sodipodi:ry="2.005904"
       sodipodi:start="3.8817905"
       sodipodi:end="3.8507069"
       sodipodi:arc-type="arc"
       d="m 50.455063,50.944655 a 2.005904,2.005904 0 0 1 2.82233,-0.138648 2.005904,2.005904 0 0 1 0.160575,2.821167 2.005904,2.005904 0 0 1 -2.819834,0.182493 2.005904,2.005904 0 0 1 -0.2044,-2.818331"
       sodipodi:open="true" />
    <path
       style="fill:#0044aa;stroke:#000000;stroke-width:0.276939px;stroke-linecap:butt;stroke-linejoin:miter;stroke-opacity:1"
       d="M 49.921425,52.307643 47.850234,49.981524 34.555985,35.05098 50.413729,50.991336 49.921425,52.307643 v 0"
       id="path22"
       sodipodi:nodetypes="cccccc" />
    <path
       style="fill:#0066ff;stroke:#000000;stroke-width:0.276939px;stroke-linecap:butt;stroke-linejoin:miter;stroke-opacity:1"
       d="M 34.555985,35.05098 51.555679,50.244747 50.398057,50.902504 34.555985,35.05098 v 0"
       id="path23"
       sodipodi:nodetypes="ccccc" />
    <path
       style="fill:#999999;fill-opacity:1;stroke:#008080;stroke-width:0.014184;stroke-linecap:round;stroke-linejoin:round;stroke-miterlimit:4;stroke-dasharray:none;stroke-dashoffset:0;stroke-opacity:1;paint-order:normal"
       d="M 47.693616,64.581481 C 47.488658,64.514426 47.129627,64.317426 46.895771,64.143708 46.661917,63.969992 41.950855,59.305823 36.426746,53.77889 L 26.38291,43.729918 26.826626,43.4424 c 0.542564,-0.35157 1.921246,-1.724861 2.224364,-2.215667 l 0.221624,-0.358849 8.820607,8.799892 c 8.105662,8.086624 8.867309,8.822275 9.396826,9.076071 0.744275,0.356732 1.209066,0.459435 2.091243,0.462101 1.799775,0.0054 3.724797,-0.933459 5.329811,-2.599528 2.281447,-2.368241 2.99944,-5.04215 1.923853,-7.164719 -0.183946,-0.362999 -2.10105,-2.340817 -9.021455,-9.307154 -4.833328,-4.865407 -8.797089,-8.87719 -8.808357,-8.915068 -0.01127,-0.03788 0.174654,-0.201263 0.413154,-0.363072 0.503629,-0.341686 1.929006,-1.788459 2.178294,-2.210993 0.09376,-0.158927 0.197747,-0.278603 0.231071,-0.265948 0.138484,0.05259 14.374077,14.181638 17.256296,17.127134 3.38796,3.462344 3.590136,3.721443 3.706691,4.750375 0.198867,1.755595 -1.024795,4.525928 -3.209766,7.266803 -0.774722,0.971827 -3.055193,3.251856 -4.023746,4.022966 -1.674326,1.333012 -3.52513,2.410003 -4.915363,2.860281 -0.872825,0.282691 -2.350143,0.370113 -2.948157,0.174456 z"
       id="path48" />
    <path
       style="fill:#ececec;fill-opacity:1;stroke:#008080;stroke-width:0.014184;stroke-linecap:round;stroke-linejoin:round;stroke-miterlimit:4;stroke-dasharray:none;stroke-dashoffset:0;stroke-opacity:1;paint-order:normal"
       d="m 48.258322,58.669685 c -0.284427,-0.09784 -0.683348,-0.280213 -0.886493,-0.405269 -0.203143,-0.125059 -4.322887,-4.176448 -9.154985,-9.003088 l -8.785631,-8.775707 0.117048,-0.545314 c 0.06437,-0.299922 0.118447,-0.844436 0.12016,-1.210029 l 0.0031,-0.664714 9.463316,9.449306 c 5.204822,5.197116 9.628483,9.575106 9.83036,9.728861 0.201877,0.15376 0.674414,0.42553 1.050082,0.603934 0.541253,0.257037 0.822123,0.333299 1.353099,0.367373 0.619277,0.03974 0.653198,0.05184 0.447526,0.159605 -0.905876,0.474633 -2.621822,0.616944 -3.557598,0.295042 z"
       id="path49" />
    <path
       style="fill:#ececec;fill-opacity:1;stroke:#008080;stroke-width:0.014184;stroke-linecap:round;stroke-linejoin:round;stroke-miterlimit:4;stroke-dasharray:none;stroke-dashoffset:0;stroke-opacity:1;paint-order:normal"
       d="m 62.256129,54.110779 c 0.03561,-0.09751 0.203334,-0.536326 0.372687,-0.975141 0.441352,-1.143583 0.611315,-2.183673 0.492084,-3.011295 -0.05169,-0.358762 -0.187342,-0.845176 -0.301464,-1.080916 -0.303649,-0.627256 -2.735339,-3.119478 -12.398063,-12.706695 l -8.443199,-8.377222 0.06215,-0.354736 c 0.03418,-0.195106 0.108585,-0.710852 0.165344,-1.146104 l 0.1032,-0.791365 10.798818,10.761311 c 8.40282,8.373636 10.8494,10.860347 11.026788,11.207661 0.47145,0.92305 0.357949,2.274483 -0.324122,3.859349 -0.308066,0.715818 -1.164221,2.234242 -1.474547,2.615153 l -0.144447,0.177299 z"
       id="path50" />
    <path
       style="fill:#ececec;fill-opacity:1;stroke:#008080;stroke-width:0.014184;stroke-linecap:round;stroke-linejoin:round;stroke-miterlimit:4;stroke-dasharray:none;stroke-dashoffset:0;stroke-opacity:1;paint-order:normal"
       d="m 65.778984,64.062123 -6.045296,-6.050773 0.589069,-0.69106 0.58907,-0.691056 5.395168,5.389471 c 2.967344,2.964209 5.434322,5.459842 5.482177,5.545849 0.120861,0.217231 0.199494,1.81087 0.109315,2.215448 l -0.07421,0.332896 z"
       id="path51" />
    <path
       style="fill:#999999;fill-opacity:1;stroke:#008080;stroke-width:0.014184;stroke-linecap:round;stroke-linejoin:round;stroke-miterlimit:4;stroke-dasharray:none;stroke-dashoffset:0;stroke-opacity:1;paint-order:normal"
       d="M 69.485037,77.684357 C 68.707106,77.475144 67.967645,77.02715 67.302711,76.362214 66.063456,75.122961 65.498973,73.40253 65.703865,71.489259 l 0.06478,-0.604978 1.489352,1.487421 c 1.699593,1.697386 1.571846,1.646803 2.464411,0.975852 0.657311,-0.494111 1.891943,-1.786962 2.184673,-2.287693 0.366113,-0.626261 0.506788,-2.047251 0.317255,-3.204692 -0.08075,-0.493134 -0.128244,-0.570187 -0.716303,-1.162194 -0.739518,-0.74449 -0.744,-0.73793 0.554639,-0.812216 1.089974,-0.06234 1.772098,0.0671 2.700359,0.512431 1.672269,0.802276 2.69253,2.480896 2.689165,4.424448 -0.0031,1.770699 -0.766683,3.417831 -2.272389,4.901568 -1.027632,1.012638 -2.127087,1.688426 -3.198704,1.96611 -0.661215,0.171338 -1.857118,0.170878 -2.496075,-8e-4 z"
       id="path52" />
    <path
       style="fill:#b3b3b3;fill-opacity:1;stroke:#008080;stroke-width:0.014184;stroke-linecap:round;stroke-linejoin:round;stroke-miterlimit:4;stroke-dasharray:none;stroke-dashoffset:0;stroke-opacity:1;paint-order:normal"
       d="m 62.748353,67.330152 -6.140042,-6.14052 1.446858,-1.433255 1.446861,-1.433256 6.133973,6.132984 6.133975,6.132988 -0.150146,0.270151 c -0.08258,0.148583 -0.609368,0.729372 -1.170641,1.290642 -0.56127,0.561275 -1.142059,1.088064 -1.290643,1.17064 l -0.270151,0.150148 z"
       id="path53" />
    <path
       style="fill:#b3b3b3;fill-opacity:1;stroke:#008080;stroke-width:0.014184;stroke-linecap:round;stroke-linejoin:round;stroke-miterlimit:4;stroke-dasharray:none;stroke-dashoffset:0;stroke-opacity:1;paint-order:normal"
       d="m 26.035804,43.203993 c -0.208612,-0.54869 -0.0088,-2.163532 0.356079,-2.878912 0.205381,-0.402583 1.49194,-1.716945 2.249514,-2.298134 0.62271,-0.477724 0.672902,-0.435176 0.672643,0.570202 -2.16e-4,0.848434 -0.189889,1.811644 -0.440325,2.236102 -0.425617,0.721365 -1.856035,2.133179 -2.505477,2.472887 -0.233483,0.122131 -0.248975,0.117372 -0.332434,-0.102145 z"
       id="path54" />
    <path
       style="fill:#b3b3b3;fill-opacity:1;stroke:#008080;stroke-width:0.014184;stroke-linecap:round;stroke-linejoin:round;stroke-miterlimit:4;stroke-dasharray:none;stroke-dashoffset:0;stroke-opacity:1;paint-order:normal"
       d="m 38.597223,30.806862 c -0.236157,-0.615414 -0.05186,-2.225275 0.349388,-3.052035 0.257159,-0.529861 1.590191,-1.935475 2.281529,-2.405756 0.489051,-0.332674 0.544634,-0.304187 0.640258,0.328133 0.07276,0.481153 -0.177439,1.986143 -0.410094,2.466744 -0.330431,0.682575 -1.785138,2.182673 -2.549857,2.629416 -0.215616,0.125964 -0.273358,0.132178 -0.311224,0.0335 z"
       id="path55" />
    <path
       style="fill:#808080;stroke:#808080;stroke-width:0.276939px;stroke-linecap:butt;stroke-linejoin:miter;stroke-opacity:1"
       d="M 53.441664,30.717443 C 60.256985,36.34015 65.69364,41.787323 71.580533,48.383409 66.709674,43.975649 57.902685,35.241148 53.378981,30.717443 m 4.501767,-0.05715 c 6.81532,5.622709 12.251973,11.06988 18.138867,17.665967 C 71.148757,43.9185 62.341767,35.183997 57.818064,30.660295"
       id="path1"
       sodipodi:nodetypes="cccccc" />
    <path
       style="fill:#808080;stroke:#808080;stroke-width:0.276939px;stroke-linecap:butt;stroke-linejoin:miter;stroke-opacity:1"
       d="M 51.198915,72.619591 C 43.906756,67.630818 38.003454,62.693218 31.548677,56.651715 36.79524,60.60484 46.350139,68.514233 51.261345,72.613968 m -4.478497,0.460688 C 39.490691,68.085882 33.587387,63.148282 27.132612,57.10678 c 5.246564,3.953122 14.80146,11.862516 19.712666,15.962252"
       id="path1-2"
       sodipodi:nodetypes="cccccc" />
  </g>
</svg>
