<?xml version="1.0" encoding="UTF-8" standalone="no"?>
<!-- Created with Inkscape (http://www.inkscape.org/) -->

<svg
   width="256"
   height="256"
   viewBox="0 0 67.733332 67.733332"
   version="1.1"
   id="svg1"
   inkscape:version="1.3.2 (091e20e, 2023-11-25, custom)"
   sodipodi:docname="diatronome.svg"
   inkscape:export-filename="icon.png"
   inkscape:export-xdpi="60"
   inkscape:export-ydpi="60"
   xmlns:inkscape="http://www.inkscape.org/namespaces/inkscape"
   xmlns:sodipodi="http://sodipodi.sourceforge.net/DTD/sodipodi-0.dtd"
   xmlns="http://www.w3.org/2000/svg"
   xmlns:svg="http://www.w3.org/2000/svg">
  <sodipodi:namedview
     id="namedview1"
     pagecolor="#ffffff"
     bordercolor="#666666"
     borderopacity="1.0"
     inkscape:showpageshadow="2"
     inkscape:pageopacity="0.0"
     inkscape:pagecheckerboard="0"
     inkscape:deskcolor="#d1d1d1"
     inkscape:document-units="px"
     showgrid="true"
     showguides="true"
     inkscape:zoom="1.1044922"
     inkscape:cx="213.22016"
     inkscape:cy="97.329799"
     inkscape:window-width="1366"
     inkscape:window-height="697"
     inkscape:window-x="1912"
     inkscape:window-y="-8"
     inkscape:window-maximized="1"
     inkscape:current-layer="layer1">
    <inkscape:grid
       id="grid1"
       units="px"
       originx="8.4666665"
       originy="8.4666665"
       spacingx="2.1166666"
       spacingy="2.1166666"
       empcolor="#3f3fff"
       empopacity="0.25098039"
       color="#3f3fff"
       opacity="0.1254902"
       empspacing="5"
       dotted="false"
       gridanglex="30"
       gridanglez="30"
       visible="true" />
  </sodipodi:namedview>
  <defs
     id="defs1">
    <inkscape:path-effect
       effect="mirror_symmetry"
       start_point="31.522219,8.4666662"
       end_point="31.522219,45.50833"
       center_point="31.522219,26.987498"
       id="path-effect4"
       is_visible="true"
       lpeversion="1.2"
       lpesatellites=""
       mode="free"
       discard_orig_path="false"
       fuse_paths="false"
       oposite_fuse="false"
       split_items="false"
       split_open="false"
       link_styles="false" />
  </defs>
  <g
     inkscape:label="Calque 1"
     inkscape:groupmode="layer"
     id="layer1">
    <path
       style="fill:none;stroke:#000000;stroke-width:0.320514px;stroke-linecap:butt;stroke-linejoin:miter;stroke-opacity:1"
       d="M 18.027167,9.6809295 C 26.571861,18.257541 28.774103,20.691705 38.040418,29.790992 43.410576,35.064339 32.569151,45.980128 27.129852,40.540829 L 7.1857424,20.596719 M 21.653368,6.0547284 C 39.96769,24.290827 36.351817,20.440255 45.260859,29.662219 50.605488,35.194574 32.569153,53.232527 27.129852,47.793226 L 3.5223613,24.185735 M 7.148563,16.933333 c 0.6813226,0.681322 0.2685362,2.711984 0.018591,3.644793 -0.2489123,0.928954 -2.7122121,3.357725 -3.6447927,3.607609 -0.7166803,-0.71668 -0.2565433,-2.704999 5e-7,-3.626201 0.256544,-0.921203 2.7830755,-3.139424 3.6262006,-3.626202 L 28.90577,38.69054 c 4.68589,4.685889 7.68654,0.472415 7.68654,0.472415"
       id="path7"
       sodipodi:nodetypes="cssccsscccczcsc" />
    <path
       style="fill:none;stroke:#000000;stroke-width:0.320514px;stroke-linecap:butt;stroke-linejoin:miter;stroke-opacity:1"
       d="m 40.283663,42.79767 c 0.66232,-0.66232 11.038551,-10.841946 6.857579,-14.952092 L 21.653367,2.4285275 c -0.92362,0.2474831 -3.377663,2.6986471 -3.6262,3.6262003 -0.251208,0.9375233 -0.686767,2.9394349 0,3.6262017 0.958116,-0.2585091 3.376655,-2.6948821 3.626201,-3.6262012 v 0 c 0.249016,-0.9293419 0.679718,-2.9464826 0,-3.6262005"
       id="path9"
       sodipodi:nodetypes="cccscscc" />
    <path
       style="fill:none;stroke:#000000;stroke-width:0.320514px;stroke-linecap:butt;stroke-linejoin:miter;stroke-opacity:1"
       d="m 38.487579,44.41951 14.504806,14.504806 c 0.921214,-0.246838 3.375712,-2.691378 3.626198,-3.626205 -5.062515,-5.062514 -9.7178,-9.7178 -14.504802,-14.504803"
       id="path3"
       sodipodi:nodetypes="cccc" />
    <path
       style="fill:none;stroke:#000000;stroke-width:0.320514px;stroke-linecap:butt;stroke-linejoin:miter;stroke-opacity:1"
       d="m 43.866591,38.919917 12.751995,12.751995 c 0.25192,0.940175 0.252038,2.685587 10e-7,3.626201"
       id="path13"
       sodipodi:nodetypes="ccc" />
    <path
       style="fill:none;stroke:#000000;stroke-width:0.320514px;stroke-linecap:butt;stroke-linejoin:miter;stroke-opacity:1"
       d="m 54.935154,49.988481 c 6.976402,-2.018002 11.425411,5.640285 5.590469,11.475227 -5.834942,5.834941 -12.733911,0.552831 -11.203203,-5.982719"
       id="path18"
       sodipodi:nodetypes="czc" />
    <path
       style="display:inline;fill:#0044aa;fill-opacity:1;stroke:#000000;stroke-width:0.321017;stroke-linecap:round;stroke-linejoin:round;stroke-miterlimit:4;stroke-dasharray:none;stroke-dashoffset:0;stroke-opacity:1;paint-order:normal"
       id="path21"
       sodipodi:type="arc"
       sodipodi:cx="33.443306"
       sodipodi:cy="34.192978"
       sodipodi:rx="2.3215287"
       sodipodi:ry="2.3215287"
       sodipodi:start="3.8817905"
       sodipodi:end="3.8507069"
       sodipodi:arc-type="arc"
       d="m 31.72924,32.62726 a 2.3215287,2.3215287 0 0 1 3.266417,-0.160463 2.3215287,2.3215287 0 0 1 0.185841,3.265071 2.3215287,2.3215287 0 0 1 -3.263529,0.211208 2.3215287,2.3215287 0 0 1 -0.236562,-3.261789"
       sodipodi:open="true" />
    <path
       style="fill:#0044aa;stroke:#000000;stroke-width:0.320514px;stroke-linecap:butt;stroke-linejoin:miter;stroke-opacity:1"
       d="M 31.111641,34.204712 28.714551,31.512583 13.32848,14.23275 31.681406,32.681287 31.111641,34.204712 v 0"
       id="path22"
       sodipodi:nodetypes="cccccc" />
    <path
       style="fill:#0066ff;stroke:#000000;stroke-width:0.320514px;stroke-linecap:butt;stroke-linejoin:miter;stroke-opacity:1"
       d="M 13.32848,14.23275 33.00304,31.817224 31.66327,32.578479 13.32848,14.23275 v 0"
       id="path23"
       sodipodi:nodetypes="ccccc" />
    <path
       style="fill:#999999;fill-opacity:1;stroke:#008080;stroke-width:0.0164158;stroke-linecap:round;stroke-linejoin:round;stroke-miterlimit:4;stroke-dasharray:none;stroke-dashoffset:0;stroke-opacity:1;paint-order:normal"
       d="m 28.533291,48.409813 c -0.237208,-0.07761 -0.652733,-0.305604 -0.923384,-0.506656 -0.270652,-0.201049 -5.72299,-5.599115 -12.116305,-11.9957 L 3.8693898,24.2773 4.3829231,23.944543 C 5.0108577,23.537654 6.6064737,21.948279 6.9572865,21.380245 L 7.2137817,20.964932 17.422293,31.149467 c 9.38107,9.359039 10.262562,10.210443 10.875397,10.504172 0.861385,0.412863 1.39931,0.531726 2.420295,0.534812 2.082966,0.0063 4.310886,-1.080337 6.168445,-3.008558 2.640429,-2.740878 3.471397,-5.835522 2.226568,-8.292072 C 38.900109,30.467704 36.681352,28.17868 28.672036,20.116206 23.078194,14.485236 18.490745,9.8422091 18.477704,9.79837 18.46466,9.7545295 18.679839,9.5654408 18.955866,9.3781707 19.538739,8.982721 21.188396,7.3083015 21.47691,6.8192826 21.585429,6.6353487 21.705773,6.496841 21.74434,6.5114886 21.904613,6.5723545 38.380147,22.924576 41.715877,26.33354 c 3.921049,4.007136 4.155037,4.307004 4.289931,5.497836 0.230158,2.031834 -1.186045,5.238074 -3.714817,8.410219 -0.896622,1.124742 -3.53592,3.763529 -4.656873,4.655971 -1.937778,1.542759 -4.079802,2.789212 -5.688785,3.31034 -1.010161,0.327173 -2.719934,0.42835 -3.412042,0.201907 z"
       id="path48" />
    <path
       style="fill:#ececec;fill-opacity:1;stroke:#008080;stroke-width:0.0164158;stroke-linecap:round;stroke-linejoin:round;stroke-miterlimit:4;stroke-dasharray:none;stroke-dashoffset:0;stroke-opacity:1;paint-order:normal"
       d="M 29.186851,41.567808 C 28.857671,41.454573 28.39598,41.243505 28.160871,41.098771 27.925764,40.954034 23.157787,36.265168 17.565368,30.679067 L 7.3973379,20.522521 7.5328018,19.891403 c 0.074504,-0.347115 0.1370851,-0.977307 0.1390676,-1.400425 l 0.0036,-0.769305 10.9523466,10.936134 c 6.02379,6.014871 11.143505,11.081728 11.377147,11.259677 0.233642,0.177953 0.780532,0.492486 1.21531,0.698961 0.626419,0.297482 0.951483,0.385742 1.566007,0.425179 0.716718,0.046 0.755978,0.06 0.517942,0.184718 -1.048414,0.549316 -3.03436,0.714019 -4.117378,0.341466 z"
       id="path49" />
    <path
       style="fill:#ececec;fill-opacity:1;stroke:#008080;stroke-width:0.0164158;stroke-linecap:round;stroke-linejoin:round;stroke-miterlimit:4;stroke-dasharray:none;stroke-dashoffset:0;stroke-opacity:1;paint-order:normal"
       d="m 45.387184,36.291568 c 0.04122,-0.112855 0.235328,-0.620716 0.431329,-1.128577 0.510797,-1.323524 0.707502,-2.52727 0.569511,-3.485116 -0.05982,-0.415212 -0.21682,-0.978163 -0.348898,-1.250997 -0.351428,-0.725953 -3.165739,-3.61032 -14.348872,-14.706066 l -9.771719,-9.6953591 0.07193,-0.4105532 c 0.03956,-0.2258051 0.125672,-0.8227029 0.191362,-1.3264402 L 22.301265,3.3725736 34.799254,15.827155 c 9.724985,9.69121 12.556529,12.569199 12.76183,12.971162 0.54563,1.06829 0.414271,2.632368 -0.375123,4.466609 -0.35654,0.828451 -1.347408,2.585795 -1.706564,3.026642 l -0.167175,0.205196 z"
       id="path50" />
    <path
       style="fill:#ececec;fill-opacity:1;stroke:#008080;stroke-width:0.0164158;stroke-linecap:round;stroke-linejoin:round;stroke-miterlimit:4;stroke-dasharray:none;stroke-dashoffset:0;stroke-opacity:1;paint-order:normal"
       d="m 49.464352,47.808734 -6.996511,-7.002849 0.681758,-0.799795 0.68176,-0.799793 6.244086,6.237492 c 3.434249,3.430621 6.2894,6.318937 6.344786,6.418478 0.139878,0.251412 0.230884,2.095807 0.126515,2.564044 l -0.08588,0.385276 z"
       id="path51" />
    <path
       style="fill:#999999;fill-opacity:1;stroke:#008080;stroke-width:0.0164158;stroke-linecap:round;stroke-linejoin:round;stroke-miterlimit:4;stroke-dasharray:none;stroke-dashoffset:0;stroke-opacity:1;paint-order:normal"
       d="m 53.753545,63.574398 c -0.900337,-0.242132 -1.756151,-0.760617 -2.525711,-1.530178 -1.434249,-1.434248 -2.087552,-3.425385 -1.85042,-5.639705 l 0.07498,-0.70017 1.723699,1.721464 c 1.967019,1.964466 1.819172,1.905923 2.852179,1.129399 0.760737,-0.571858 2.189636,-2.068136 2.528427,-2.647656 0.423721,-0.724802 0.58653,-2.369382 0.367174,-3.708944 -0.09345,-0.570726 -0.148422,-0.659903 -0.829011,-1.345062 -0.855881,-0.861634 -0.861067,-0.854042 0.641911,-0.940017 1.261478,-0.07215 2.050932,0.07766 3.125254,0.593061 1.935398,0.928512 3.116194,2.87126 3.112299,5.120627 -0.0036,2.049314 -0.887318,3.955619 -2.629945,5.672818 -1.189328,1.171975 -2.461778,1.954096 -3.702013,2.275473 -0.765256,0.198298 -2.149332,0.197766 -2.888827,-9.25e-4 z"
       id="path52" />
    <path
       style="fill:#b3b3b3;fill-opacity:1;stroke:#008080;stroke-width:0.0164158;stroke-linecap:round;stroke-linejoin:round;stroke-miterlimit:4;stroke-dasharray:none;stroke-dashoffset:0;stroke-opacity:1;paint-order:normal"
       d="m 45.956859,51.590981 -7.106165,-7.106717 1.674518,-1.658775 1.674521,-1.658776 7.099141,7.097996 7.099143,7.098001 -0.173771,0.312658 c -0.09558,0.171962 -0.70525,0.844137 -1.354839,1.493722 -0.649585,0.64959 -1.321761,1.259269 -1.493723,1.354839 l -0.312659,0.173773 z"
       id="path53" />
    <path
       style="fill:#b3b3b3;fill-opacity:1;stroke:#008080;stroke-width:0.0164158;stroke-linecap:round;stroke-linejoin:round;stroke-miterlimit:4;stroke-dasharray:none;stroke-dashoffset:0;stroke-opacity:1;paint-order:normal"
       d="m 3.467666,23.668623 c -0.2414364,-0.635026 -0.010273,-2.50396 0.4121085,-3.331903 0.237698,-0.465928 1.7266932,-1.987103 2.6034703,-2.659741 0.7206921,-0.552893 0.7787817,-0.50365 0.7784831,0.659923 -2.512e-4,0.981933 -0.219769,2.096702 -0.509611,2.587948 C 6.2595314,21.75972 4.604039,23.393679 3.852409,23.78684 3.5821873,23.928188 3.564258,23.92268 3.467666,23.668623 Z"
       id="path54" />
    <path
       style="fill:#b3b3b3;fill-opacity:1;stroke:#008080;stroke-width:0.0164158;stroke-linecap:round;stroke-linejoin:round;stroke-miterlimit:4;stroke-dasharray:none;stroke-dashoffset:0;stroke-opacity:1;paint-order:normal"
       d="m 18.005599,9.3208294 c -0.273316,-0.7122483 -0.06002,-2.5754162 0.404364,-3.5322655 0.297623,-0.6132349 1.840404,-2.2400196 2.640523,-2.7842967 0.566001,-0.3850197 0.630331,-0.3520506 0.741001,0.3797644 0.08421,0.5568619 -0.20536,2.2986582 -0.474622,2.8548803 -0.382423,0.7899769 -2.066025,2.5261124 -2.951072,3.04315 -0.249543,0.1457833 -0.316369,0.1529753 -0.360194,0.038766 z"
       id="path55" />
    <path
       style="fill:#808080;stroke:#808080;stroke-width:0.320514px;stroke-linecap:butt;stroke-linejoin:miter;stroke-opacity:1"
       d="M 35.185782,9.2173414 C 43.073479,15.724769 49.365579,22.029042 56.178763,29.663009 50.541484,24.561698 40.348734,14.452841 35.113235,9.2173414 m 5.21011,-0.066146 C 48.211042,15.658628 54.503141,21.9629 61.316324,29.596868 55.679047,24.495556 45.486297,14.386698 40.250797,9.1512003"
       id="path1"
       sodipodi:nodetypes="cccccc" />
    <path
       style="fill:#808080;stroke:#808080;stroke-width:0.320514px;stroke-linecap:butt;stroke-linejoin:miter;stroke-opacity:1"
       d="M 32.59014,57.712702 C 24.150576,51.938956 17.318401,46.224436 9.8479794,39.232315 15.920078,43.807456 26.978419,52.961375 32.662394,57.706195 M 27.479216,58.23937 C 19.039652,52.465623 12.207476,46.751103 4.7370551,39.758983 10.809154,44.334122 21.867495,53.488041 27.551469,58.232863"
       id="path1-2"
       sodipodi:nodetypes="cccccc" />
  </g>
</svg>
